/* XPM */
static char *_02078676a7b4f0edab05e83003dacabEG2JjwLoG2iwKJEf[] = {
/* columns rows colors chars-per-pixel */
"100 100 2 1 ",
"  c black",
". c #B3E5FC",
/* pixels */
"                                                                                                    ",
"                                                                                                    ",
"                                                                                                    ",
"                                                                                                    ",
"                                                                                                    ",
"                                                                                                    ",
"                                                                                                    ",
"                                                                                                    ",
"                                                                                                    ",
"                                                                                                    ",
"                                                                                                    ",
"                                                                                                    ",
"                                                                                                    ",
"                                                                                                    ",
"                                                                                                    ",
"                                                                                                    ",
"                                                                                                    ",
"                                                                                                    ",
"                                                                                                    ",
"                                                                                                    ",
"                                                                                                    ",
"                                                                                                    ",
"                                          ......     ......                                         ",
"                                          ......     ......                                         ",
"                                          ......     ......                                         ",
"                                          ......     ......                                         ",
"                                          ......     ......                                         ",
"                               ......           .....           ......                              ",
"                               ......           .....           ......                              ",
"                               ......           .....           ......                              ",
"                               ......           .....           ......                              ",
"                               ......           .....           ......                              ",
"                          ...........           .....           ...........                         ",
"                          ...........           .....           ...........                         ",
"                          ...........           .....           ...........                         ",
"                          ...........           .....           ...........                         ",
"                          ...........           .....           ...........                         ",
"                                     .....      .....      .....                                    ",
"                                     .....      .....      .....                                    ",
"                                     .....      .....      .....                                    ",
"                                     .....      .....      .....                                    ",
"                                     .....      .....      .....                                    ",
"                    ......                .................                ......                   ",
"                    ......                .................                ......                   ",
"                    ......                .................                ......                   ",
"                    ......                .................                ......                   ",
"                    ......                .................                ......                   ",
"                          ......................     ......................                         ",
"                          ......................     ......................                         ",
"                          ......................     ......................                         ",
"                          ......................     ......................                         ",
"                          ......................     ......................                         ",
"                    ......                .................                ......                   ",
"                    ......                .................                ......                   ",
"                    ......                .................                ......                   ",
"                    ......                .................                ......                   ",
"                    ......                .................                ......                   ",
"                                     .....      .....      .....                                    ",
"                                     .....      .....      .....                                    ",
"                                     .....      .....      .....                                    ",
"                                     .....      .....      .....                                    ",
"                                     .....      .....      .....                                    ",
"                          ...........           .....           ...........                         ",
"                          ...........           .....           ...........                         ",
"                          ...........           .....           ...........                         ",
"                          ...........           .....           ...........                         ",
"                          ...........           .....           ...........                         ",
"                               ......           .....           ......                              ",
"                               ......           .....           ......                              ",
"                               ......           .....           ......                              ",
"                               ......           .....           ......                              ",
"                               ......           .....           ......                              ",
"                                          ......     ......                                         ",
"                                          ......     ......                                         ",
"                                          ......     ......                                         ",
"                                          ......     ......                                         ",
"                                          ......     ......                                         ",
"                                                                                                    ",
"                                                                                                    ",
"                                                                                                    ",
"                                                                                                    ",
"                                                                                                    ",
"                                                                                                    ",
"                                                                                                    ",
"                                                                                                    ",
"                                                                                                    ",
"                                                                                                    ",
"                                                                                                    ",
"                                                                                                    ",
"                                                                                                    ",
"                                                                                                    ",
"                                                                                                    ",
"                                                                                                    ",
"                                                                                                    ",
"                                                                                                    ",
"                                                                                                    ",
"                                                                                                    ",
"                                                                                                    ",
"                                                                                                    ",
"                                                                                                    "
};
