/* XPM */
static char *c5d4d92112724e50c26ec18b4215ea2bxXyk4qadUrIu49EB[] = {
/* columns rows colors chars-per-pixel */
"100 100 10 1 ",
"  c black",
". c #131313",
"X c #391F21",
"o c #0C2E44",
"O c #134C4C",
"+ c #1E6F50",
"@ c #8A4836",
"# c #92A1B9",
"$ c #C7CFDD",
"% c white",
/* pixels */
"                                                                                                    ",
"                                                                                                    ",
"                                                                                                    ",
"                                                                                                    ",
"                                                                                                    ",
"                                                                                                    ",
"                                                                                                    ",
"                                                                                                    ",
"                                                                                                    ",
"                                                                                                    ",
"                                                                                                    ",
"                                                                                                    ",
"                                                                                                    ",
"                                                                                                    ",
"                                                                                                    ",
"                                                                                                    ",
"                                                                                                    ",
"                                                                                                    ",
"                                                                                                    ",
"                                                                                                    ",
"                                                                                                    ",
"                                                                                                    ",
"                                                                                                    ",
"                                                                                                    ",
"                                                                                                    ",
"                                                                                                    ",
"                                                                                                    ",
"                                                                                                    ",
"                                                                                                    ",
"                                                                                                    ",
"                                                                                                    ",
"                                                                                                    ",
"                                                                                                    ",
"                                                                                                    ",
"                                                                                                    ",
"                                                                                                    ",
"                                                                                                    ",
"                                                                                                    ",
"                                                                                                    ",
"                                                                                                    ",
"                                                                                                    ",
"                                                                      .....                         ",
"                                                                      .....                         ",
"                                  %  % %  % %%%% %%%% %   %         ..$%%%%.                        ",
"                                  % %  %  %   %  %    %   %         ..$%%%%.                        ",
"                                  %%   %  %  %   %%%   %%%         .$$%%%$$.                        ",
"                                  % %  %  % %    %      %          .$$%%%$$.                        ",
"                                  %  %  %%  %%%% %%%%   %        ..$%%%$$$$.                        ",
"                                                                 ..$%%%$$$$.                        ",
"                                                                .$$%%%$##..                         ",
"                                                              ..$%%%$$#..                           ",
"                                                              ..$%%%$$#..                           ",
"                                                             .$$%%%$##.                             ",
"                                                             .$$%%%$##.                             ",
"                                                       ..   .$$%%$$#..                              ",
"                                                       ..   .$$%%$$#..                              ",
"                                                     ..@@...$%%%$##.                                ",
"                                                     ..@@...$%%%$##.                                ",
"                                                     ..@@@##%%%$##.                                 ",
"                                                     ..@@@##%%%$##.                                 ",
"                                                     ..XX@OO#$$#..                                  ",
"                                                     ..XX@OO#$$#..                                  ",
"                                                       ..o++O##.                                    ",
"                                                     ..@@@oo@@@.                                    ",
"                                                     ..@@@oo@@@.                                    ",
"                                                    .@@@@X..X@@@..                                  ",
"                                                    .@@@@X..X@@@..                                  ",
"                                                    .XXXX.  ....                                    ",
"                                                    .XXXX.  ....                                    ",
"                                                     ....                                           ",
"                                                      ...                                           ",
"                                                                                                    ",
"                                                                                                    ",
"                                                                                                    ",
"                                                                                                    ",
"                                                                                                    ",
"                                                                                                    ",
"                                                                                                    ",
"                                                                                                    ",
"                                                                                                    ",
"                                                                                                    ",
"                                                                                                    ",
"                                                                                                    ",
"                                                                                                    ",
"                                                                                                    ",
"                                                                                                    ",
"                                                                                                    ",
"                                                                                                    ",
"                                                                                                    ",
"                                                                                                    ",
"                                                                                                    ",
"                                                                                                    ",
"                                                                                                    ",
"                                                                                                    ",
"                                                                                                    ",
"                                                                                                    ",
"                                                                                                    ",
"                                                                                                    ",
"                                                                                                    ",
"                                                                                                    "
};
