/* XPM */
static char *_25144410ac54904dc0c4e940e2610fd8fqr9RUVegNGpEXN[] = {
/* columns rows colors chars-per-pixel */
"100 100 6 1 ",
"  c black",
". c #6C2535",
"X c #795548",
"o c #F44336",
"O c #CDDC39",
"+ c white",
/* pixels */
"++++++++++++++++++++++++++++++++++++++++++++++++++++++++++++++++++++++++++++++++++++++++++++++++++++",
"++++++++++++++++++++++++++++++++++++++++++++++++++++++++++++++++++++++++++++++++++++++++++++++++++++",
"++++++++++++++++++++++++++++++++++++++++++++++++++++++++++++++++++++++++++++++++++++++++++++++++++++",
"++++++++++++++++++++++++++++++++++++++++++++++++++++++++++++++++++++++++++++++++++++++++++++++++++++",
"++++++++++++++++++++++++++++++++++++++++++++++++++++++++++++++++++++++++++++++++++++++++++++++++++++",
"++++++++++++++++++++++++++++++++++++++++++++++++++++++++++++++++++++++++++++++++++++++++++++++++++++",
"++++++++++++++++++++++++++++++++++++++++++++++++++++++++++++++++++++++++++++++++++++++++++++++++++++",
"++++++++++++++++++++++++++++++++++++++++++++++++++++++++++++++++++++++++++++++++++++++++++++++++++++",
"++++++++++++++++++++++++++++++++++++++++++++++++++++++++++++++++++++++++++++++++++++++++++++++++++++",
"++++++++++++++++++++++++++++++++++++++++++++++++++++++++++++++++++++++++++++++++++++++++++++++++++++",
"++++++++++++++++++++++++++++++++++++++++++++++++++++++++++++++++++++++++++++++++++++++++++++++++++++",
"++++++++++++++++++++++++++++++++++++++++++++++++++++++++++++++++++++++++++++++++++++++++++++++++++++",
"++++++++++++++++++++XXXXXXXXXXXXXXXXX++++++++++++++++++++++++XXXXXXXXXXXXXXXXX++++++++++++++++++++++",
"++++++++++++++++++++XXXXXXXXXXXXXXXXX++++++++++++++++++++++++XXXXXXXXXXXXXXXXX++++++++++++++++++++++",
"++++++++++++++++++++XXXXXXXXXXXXXXXXX++++++++++++++++++++++++XXXXXXXXXXXXXXXXX++++++++++++++++++++++",
"++++++++++++++++++++XXXXXXXXXXXXXXXXX++++++++++++++++++++++++XXXXXXXXXXXXXXXXX++++++++++++++++++++++",
"++++++++++++++++++++XXXXXXXXXXXXXXXXX++++++++++++++++++++++++XXXXXXXXXXXXXXXXX++++++++++++++++++++++",
"++++++++++++++++++++XXXXXXXXXXXXXXXXX++++++++++++++++++++++++XXXXXXXXXXXXXXXXX++++++++++++++++++++++",
"++++++++++++++++++++++++++++XXXXXXXXX++++++++++++++++++++++++XXXXXXXXX++++++++++++++++++++++++++++++",
"++++++++++++++++++++++++++++XXXXXXXXX++++++++++++++++++++++++XXXXXXXXX++++++++++++++++++++++++++++++",
"++++++++++++++++++++++++++++XXXXXXXXX++++++++++++++++++++++++XXXXXXXXX++++++++++++++++++++++++++++++",
"++++++++++++++++++++++++++++XXXXXXXXX++++++++++++++++++++++++XXXXXXXXX++++++++++++++++++++++++++++++",
"++++++++++++++++++++++++++++XXXXXXXXX++++++++++++++++++++++++XXXXXXXXX++++++++++++++++++++++++++++++",
"++++++++++++++++++++++++++++XXXXXXXXX++++++++++++++++++++++++XXXXXXXXX++++++++++++++++++++++++++++++",
"++++++++++++++++++++XXXXXXXXXXXXXXXXX++++++++++++++++++++++++XXXXXXXXXXXXXXXXX++++++++++++++++++++++",
"++++++++++++++++++++XXXXXXXXXXXXXXXXX++++++++++++++++++++++++XXXXXXXXXXXXXXXXX++++++++++++++++++++++",
"++++++++++++++++++++XXXXXXXXXXXXXXXXX++++++++++++++++++++++++XXXXXXXXXXXXXXXXX++++++++++++++++++++++",
"++++++++++++++++++++XXXXXXXXXXXXXXXXX++++++++++++++++++++++++XXXXXXXXXXXXXXXXX++++++++++++++++++++++",
"++++++++++++++++++++XXXXXXXXXXXXXXXXX++++++++++++++++++++++++XXXXXXXXXXXXXXXXX++++++++++++++++++++++",
"++++++++++++++++++++XXXXXXXXXXXXXXXXX++++++++++++++++++++++++XXXXXXXXXXXXXXXXX++++++++++++++++++++++",
"++++++++++++++++++++++++++++XXXXXXXXX........................XXXXXXXXX++++++++++++++++++++++++++++++",
"++++++++++++++++++++++++++++XXXXXXXXX........................XXXXXXXXX++++++++++++++++++++++++++++++",
"++++++++++++++++++++++++++++XXXXXXXXX........................XXXXXXXXX++++++++++++++++++++++++++++++",
"++++++++++++++++++++++++++++XXXXXXXXX........................XXXXXXXXX++++++++++++++++++++++++++++++",
"++++++++++++++++++++++++++++XXXXXXXXX........................XXXXXXXXX++++++++++++++++++++++++++++++",
"++++++++++++++++++++++++++++XXXXXXXXX........................XXXXXXXXX++++++++++++++++++++++++++++++",
"++++++++++++++++++++++++++++.........XXXXXXXXXXXXXXXXXXXXXXXX.........++++++++++++++++++++++++++++++",
"++++++++++++++++++++++++++++.........XXXXXXXXXXXXXXXXXXXXXXXX.........++++++++++++++++++++++++++++++",
"++++++++++++++++++++++++++++.........XXXXXXXXXXXXXXXXXXXXXXXX.........++++++++++++++++++++++++++++++",
"++++++++++++++++++++++++++++.........XXXXXXXXXXXXXXXXXXXXXXXX.........++++++++++++++++++++++++++++++",
"++++++++++++++++++++++++++++.........XXXXXXXXXXXXXXXXXXXXXXXX.........++++++++++++++++++++++++++++++",
"++++++++++++++++++++++++++++.........XXXXXXXXXXXXXXXXXXXXXXXX.........++++++++++++++++++++++++++++++",
"++++++++++++++++++++........XXXXXXXXX++++++++XXXXXXXX++++++++XXXXXXXXX........++++++++++++++++++++++",
"++++++++++++++++++++........XXXXXXXXX++++++++XXXXXXXX++++++++XXXXXXXXX........++++++++++++++++++++++",
"++++++++++++++++++++........XXXXXXXXX++++++++XXXXXXXX++++++++XXXXXXXXX........++++++++++++++++++++++",
"++++++++++++++++++++........XXXXXXXXX++++++++XXXXXXXX++++++++XXXXXXXXX........++++++++++++++++++++++",
"++++++++++++++++++++........XXXXXXXXX++++++++XXXXXXXX++++++++XXXXXXXXX........++++++++++++++++++++++",
"++++++++++++++++++++........XXXXXXXXX++++++++XXXXXXXX++++++++XXXXXXXXX........++++++++++++++++++++++",
"++++++++++++++++++++........XXXXXXXXX        XXXXXXXX        XXXXXXXXX........++++++++++++++++++++++",
"++++++++++++++++++++........XXXXXXXXX        XXXXXXXX        XXXXXXXXX........++++++++++++++++++++++",
"++++++++++++++++++++........XXXXXXXXX        XXXXXXXX        XXXXXXXXX........++++++++++++++++++++++",
"++++++++++++++++++++........XXXXXXXXX        XXXXXXXX        XXXXXXXXX........++++++++++++++++++++++",
"++++++++++++++++++++........XXXXXXXXX        XXXXXXXX        XXXXXXXXX........++++++++++++++++++++++",
"++++++++++++++++++++........XXXXXXXXX        XXXXXXXX        XXXXXXXXX........++++++++++++++++++++++",
"++++++++++++++++++++........XXXXXXXXXXXXXXXXXooooooooXXXXXXXXXXXXXXXXX........++++++++++++++++++++++",
"++++++++++++++++++++........XXXXXXXXXXXXXXXXXooooooooXXXXXXXXXXXXXXXXX........++++++++++++++++++++++",
"++++++++++++++++++++........XXXXXXXXXXXXXXXXXooooooooXXXXXXXXXXXXXXXXX........++++++++++++++++++++++",
"++++++++++++++++++++........XXXXXXXXXXXXXXXXXooooooooXXXXXXXXXXXXXXXXX........++++++++++++++++++++++",
"++++++++++++++++++++........XXXXXXXXXXXXXXXXXooooooooXXXXXXXXXXXXXXXXX........++++++++++++++++++++++",
"++++++++++++++++++++........XXXXXXXXXXXXXXXXXooooooooXXXXXXXXXXXXXXXXX........++++++++++++++++++++++",
"++++++++++++++++++++++++++++.........XXXXXXXXXXXXXXXXXXXXXXXX.........++++++++++++++++++++++++++++++",
"++++++++++++++++++++++++++++.........XXXXXXXXXXXXXXXXXXXXXXXX.........++++++++++++++++++++++++++++++",
"++++++++++++++++++++++++++++.........XXXXXXXXXXXXXXXXXXXXXXXX.........++++++++++++++++++++++++++++++",
"++++++++++++++++++++++++++++.........XXXXXXXXXXXXXXXXXXXXXXXX.........++++++++++++++++++++++++++++++",
"++++++++++++++++++++++++++++.........XXXXXXXXXXXXXXXXXXXXXXXX.........++++++++++++++++++++++++++++++",
"++++++++++++++++++++++++++++.........XXXXXXXXXXXXXXXXXXXXXXXX.........++++++++++++++++++++++++++++++",
"++++++++++++++++++++++++++++ooooooooo........................ooooooooo++++++++++++++++++++++++++++++",
"++++++++++++++++++++++++++++ooooooooo........................ooooooooo++++++++++++++++++++++++++++++",
"++++++++++++++++++++++++++++ooooooooo........................ooooooooo++++++++++++++++++++++++++++++",
"++++++++++++++++++++++++++++ooooooooo........................ooooooooo++++++++++++++++++++++++++++++",
"++++++++++++++++++++++++++++ooooooooo........................ooooooooo++++++++++++++++++++++++++++++",
"++++++++++++++++++++++++++++ooooooooo........................ooooooooo++++++++++++++++++++++++++++++",
"+++++++++++++++++++++++++++++++++++++oooooooooooooooooooooooo+++++++++++++++++++++++++++++++++++++++",
"+++++++++++++++++++++++++++++++++++++oooooooooooooooooooooooo+++++++++++++++++++++++++++++++++++++++",
"+++++++++++++++++++++++++++++++++++++oooooooooooooooooooooooo+++++++++++++++++++++++++++++++++++++++",
"+++++++++++++++++++++++++++++++++++++oooooooooooooooooooooooo+++++++++++++++++++++++++++++++++++++++",
"+++++++++++++++++++++++++++++++++++++oooooooooooooooooooooooo+++++++++++++++++++++++++++++++++++++++",
"+++++++++++++++++++++++++++++++++++++oooooooooooooooooooooooo+++++++++++++++++++++++++++++++++++++++",
"+++++++++++++++++++++++++++++++++++++++++++++OOOOOOOO+++++++++++++++++++++++++++++++++++++++++++++++",
"+++++++++++++++++++++++++++++++++++++++++++++OOOOOOOO+++++++++++++++++++++++++++++++++++++++++++++++",
"+++++++++++++++++++++++++++++++++++++++++++++OOOOOOOO+++++++++++++++++++++++++++++++++++++++++++++++",
"+++++++++++++++++++++++++++++++++++++++++++++OOOOOOOO+++++++++++++++++++++++++++++++++++++++++++++++",
"+++++++++++++++++++++++++++++++++++++++++++++OOOOOOOO+++++++++++++++++++++++++++++++++++++++++++++++",
"+++++++++++++++++++++++++++++++++++++++++++++OOOOOOOO+++++++++++++++++++++++++++++++++++++++++++++++",
"++++++++++++++++++++++++++++++++++++++++++++++++++++++++++++++++++++++++++++++++++++++++++++++++++++",
"++++++++++++++++++++++++++++++++++++++++++++++++++++++++++++++++++++++++++++++++++++++++++++++++++++",
"++++++++++++++++++++++++++++++++++++++++++++++++++++++++++++++++++++++++++++++++++++++++++++++++++++",
"++++++++++++++++++++++++++++++++++++++++++++++++++++++++++++++++++++++++++++++++++++++++++++++++++++",
"++++++++++++++++++++++++++++++++++++++++++++++++++++++++++++++++++++++++++++++++++++++++++++++++++++",
"++++++++++++++++++++++++++++++++++++++++++++++++++++++++++++++++++++++++++++++++++++++++++++++++++++",
"++++++++++++++++++++++++++++++++++++++++++++++++++++++++++++++++++++++++++++++++++++++++++++++++++++",
"++++++++++++++++++++++++++++++++++++++++++++++++++++++++++++++++++++++++++++++++++++++++++++++++++++",
"++++++++++++++++++++++++++++++++++++++++++++++++++++++++++++++++++++++++++++++++++++++++++++++++++++",
"++++++++++++++++++++++++++++++++++++++++++++++++++++++++++++++++++++++++++++++++++++++++++++++++++++",
"++++++++++++++++++++++++++++++++++++++++++++++++++++++++++++++++++++++++++++++++++++++++++++++++++++",
"++++++++++++++++++++++++++++++++++++++++++++++++++++++++++++++++++++++++++++++++++++++++++++++++++++",
"++++++++++++++++++++++++++++++++++++++++++++++++++++++++++++++++++++++++++++++++++++++++++++++++++++",
"++++++++++++++++++++++++++++++++++++++++++++++++++++++++++++++++++++++++++++++++++++++++++++++++++++",
"++++++++++++++++++++++++++++++++++++++++++++++++++++++++++++++++++++++++++++++++++++++++++++++++++++",
"++++++++++++++++++++++++++++++++++++++++++++++++++++++++++++++++++++++++++++++++++++++++++++++++++++"
};
