/* XPM */
static char *_6b063b2a48649c4918debac077e5cc8TvrXwH3xXEUCemOq[] = {
/* columns rows colors chars-per-pixel */
"100 100 23 1 ",
"  c #5F6B70",
". c #5C6D73",
"X c #596F76",
"o c #55737D",
"O c #666566",
"+ c #63676A",
"@ c #487E8F",
"# c #3E859B",
"$ c #3C879F",
"% c #378BA6",
"& c #3988A2",
"* c #348DA8",
"= c #2798BA",
"- c #438195",
"; c #1E9FC8",
": c #229BC0",
"> c #1BA1CA",
", c #19A3CD",
"< c #14A6D3",
"1 c #14A7D4",
"2 c #00B7EF",
"3 c gray72",
"4 c white",
/* pixels */
"2222222222222222222222222222222222222222222222222222222222222222222222222222222222222222222222222222",
"2222222222222222222222222222222222222222222222222222222222222222222222222222222222222222222222222222",
"2222222222222222222222222222222222222222222222222222222222222222222222222222222222222222222222222222",
"2222222222222222222222222222222222222222222222222222222222222222222222222222222222222222222222222222",
"2222222222222222222222222222222222222222222222222222222222222222222222222222222222222222222222222222",
"2222222222222222222222222222222222222222222222222222222222222222222222222222222222222222222222222222",
"2222222222222222222222222222222222222222222222222222222222222222222222222222222222222222222222222222",
"2222222222222222222222222222222222222222222222222222222222222222222222222222222222222222222222222222",
"2222222222222222222222222222222222222222222222222222222222222222222222222222222222222222222222222222",
"2222222222222222222222222222222222222222222222222222222222222222222222222222222222222222222222222222",
"2222222222222222222222222222222222222222222222222222222222222222222222222222222222222222222222222222",
"2222222222222222222222222222222222222222222222222222222222222222222222222222222222222222222222222222",
"2222222222222222222222222222222222222222222222222222222222222222222222222222222222222222222222222222",
"2222222222222222222222222222222222222222222222222222222222222222222222222222222222222222222222222222",
"2222222222222222222222222222222222222222222222222222222222222222222222222222222222222222222222222222",
"2222222222222222222222222222222222222222222222222222222222222222222222222222222222222222222222222222",
"2222222222222222222222222222222222222222222222222222222222222222222222222222222222222222222222222222",
"2222222222222222222222222222222222222222222222222222222222222222222222222222222222222222222222222222",
"2222222222222222222222222222222222222222222222222222222222222222222222222222222222222222222222222222",
"2222222222222222222222222222222222222222222222222222222222222222222222222222222222222222222222222222",
"2222222222222222222222222222222222222222222222222222222222222222222222222222222222222222222222222222",
"2222222222222222222222222222222222222222222222222222222222222222222222222222222222222222222222222222",
"2222222222222222222222222222222222222222222222222222222222222222222222222222222222222222222222222222",
"2222222222222222222222222222222222222222222222222222222222222222222222222222222222222222222222222222",
"2222222222222222222222222222222222222222222222222222222222222222222222222222222222222222222222222222",
"2222222222222222222222222222222222222222222222222222222222222222222222222222222222222222222222222222",
"2222222222222222222222222222222222222222222222222222222222222222222222222222222222222222222222222222",
"2222222222222222222222222222222222222222222222222222222222222222222222222222222222222222222222222222",
"2222222222222222222222222222222222222222222222222222222222222222222222222222222222222222222222222222",
"2222222222222222222222222222222222222222222222222222222222222222222222222222222222222222222222222222",
"2222222222222222222222222222222222222222222222222222222222222222222222222222222222222222222222222222",
"2222222222222222222222222222222222222222222222222222222222222222222222222222222222222222222222222222",
"2222222222222222222222222222222222222222222222222222222222222222222222222222222222222222222222222222",
"2222222222222222222222222222222222222222222222222222222222222222222222222222222222222222222222222222",
"2222222222222222222222222222222222222222222222222222222222222222222222222222222222222222222222222222",
"2222222222222222222222222222222222222222222222222222222222222222222222222222222222222222222222222222",
"2222222222222222222222222222222222222222222222222222222222222222222222222222222222222222222222222222",
"2222222222222222222222222222222222222222222222222222222222222222222222222222222222222222222222222222",
"2222222222222222222222222222222222222222222222222222222222222222222222222222222222222222222222222222",
"2222222222222222222222222222222222222222222222222222222222222222222222222222222222222222222222222222",
"2222222222222222222222222222222222222222222222222222222222222222222222222222222222222222222222222222",
"2222222222222222222222222222222222222222222222222222222222222222222222222222222222222222222222222222",
"2222222222222222222222222222222222222222222222222222222222222222222222222222222222222222222222222222",
"2222222222222222222222222222222224442224422444442444222222222222222222222222222222222222222222222222",
"2222222222222222222222222222222224224242242224222242222222222222222222222222222222222222222222222222",
"2222222222222222222222222222222224442244442224222242222222222222222222222222222222222222222222222222",
"2222222222222222222222222222222224224242242224222242222222222222222222222222222222222222222222222222",
"2222222222222222222222222222222224442242242224222444222222222222222222222222222222222222222222222222",
"2222222222222222222222222222222222222222222222222222222222222222222222222222222222222222222222222222",
"22222222222222222222222222222222222222222222222222222222222222222OOOO2OO2222222222222222222222222222",
"2222222222222222222222222222222222222222222222222222222;# 22222OOO4444OO2>22222222222222222222222222",
"22222222222222222222222222222222222222222222222222222:-+44O22224444444O33$22222222222222222222222222",
"222222222222222222222222222222222222222222222222222=@O444444OOO4444444433.<2222222222222222222222222",
"222222222222222222222222222222222222222222222222222O444444444O44444444433O%2222222222222222222222222",
"222222222222222222222222222222222222222222222222222O444444444444444444433322222222222222222222222222",
"222222222222222222222222222222222222222222222222222O44444444444444444443OO22222222222222222222222222",
"22222222222222222222222222222222222222222222222222OO44444444444444444433O222222222222222222222222222",
"222222222222222222222222222222222222222222222222OOO4444444444444444444332222222222222222222222222222",
"22222222222222222222222222222222222222222222222O444444444444444443O333OO2222222222222222222222222222",
"2222222222222222222222222222222222222222222222OO44444444444444433O33OOOO2222222222222222222222222222",
"222222222222222222222222222222222222222222222224444444444444443OO22OOO222222222222222222222222222222",
"222222222222222222222222222222222222222222222OO4444444344444433O222O22222222222222222222222222222222",
"2222222222222222222222222222222222222222222222O4444443334444333O222222222222222222222222222222222222",
"222222222222222222222222222222222222222222222o444444443O43433333222222222222222222222222222222222222",
"222222222222222222222222222222222222222222222*O334443333333333+-222222222222222222222222222222222222",
"2222222222222222222222222222222222222222222221X334443332O33O #;2222222222222222222222222222222222222",
"2222222222222222222222222222222222222222222222&OOOO33OO2OOX&,222222222222222222222222222222222222222",
"222222222222222222222222222222222222222222222222222OOOO222<22222222222222222222222222222222222222222",
"2222222222222222222222222222222222222222222222222222O22222222222222222222222222222222222222222222222",
"2222222222222222222222222222222222222222222222222222222222222222222222222222222222222222222222222222",
"2222222222222222222222222222222222222222222222222222222222222222222222222222222222222222222222222222",
"2222222222222222222222222222222222222222222222222222222222222222222222222222222222222222222222222222",
"2222222222222222222222222222222222222222222222222222222222222222222222222222222222222222222222222222",
"2222222222222222222222222222222222222222222222222222222222222222222222222222222222222222222222222222",
"2222222222222222222222222222222222222222222222222222222222222222222222222222222222222222222222222222",
"2222222222222222222222222222222222222222222222222222222222222222222222222222222222222222222222222222",
"2222222222222222222222222222222222222222222222222222222222222222222222222222222222222222222222222222",
"2222222222222222222222222222222222222222222222222222222222222222222222222222222222222222222222222222",
"2222222222222222222222222222222222222222222222222222222222222222222222222222222222222222222222222222",
"2222222222222222222222222222222222222222222222222222222222222222222222222222222222222222222222222222",
"2222222222222222222222222222222222222222222222222222222222222222222222222222222222222222222222222222",
"2222222222222222222222222222222222222222222222222222222222222222222222222222222222222222222222222222",
"2222222222222222222222222222222222222222222222222222222222222222222222222222222222222222222222222222",
"2222222222222222222222222222222222222222222222222222222222222222222222222222222222222222222222222222",
"2222222222222222222222222222222222222222222222222222222222222222222222222222222222222222222222222222",
"2222222222222222222222222222222222222222222222222222222222222222222222222222222222222222222222222222",
"2222222222222222222222222222222222222222222222222222222222222222222222222222222222222222222222222222",
"2222222222222222222222222222222222222222222222222222222222222222222222222222222222222222222222222222",
"2222222222222222222222222222222222222222222222222222222222222222222222222222222222222222222222222222",
"2222222222222222222222222222222222222222222222222222222222222222222222222222222222222222222222222222",
"2222222222222222222222222222222222222222222222222222222222222222222222222222222222222222222222222222",
"2222222222222222222222222222222222222222222222222222222222222222222222222222222222222222222222222222",
"2222222222222222222222222222222222222222222222222222222222222222222222222222222222222222222222222222",
"2222222222222222222222222222222222222222222222222222222222222222222222222222222222222222222222222222",
"2222222222222222222222222222222222222222222222222222222222222222222222222222222222222222222222222222",
"2222222222222222222222222222222222222222222222222222222222222222222222222222222222222222222222222222",
"2222222222222222222222222222222222222222222222222222222222222222222222222222222222222222222222222222",
"2222222222222222222222222222222222222222222222222222222222222222222222222222222222222222222222222222",
"2222222222222222222222222222222222222222222222222222222222222222222222222222222222222222222222222222",
"2222222222222222222222222222222222222222222222222222222222222222222222222222222222222222222222222222"
};
